<?xml version="1.0" encoding="utf-8"?>
<!-- Generator: Adobe Illustrator 26.0.1, SVG Export Plug-In . SVG Version: 6.00 Build 0)  -->
<svg version="1.1" id="Layer_1" xmlns="http://www.w3.org/2000/svg" xmlns:xlink="http://www.w3.org/1999/xlink" x="0px" y="0px"
	 viewBox="0 0 16 16" style="enable-background:new 0 0 16 16;" xml:space="preserve">
<style type="text/css">
	.st0{fill:#FF0000;}
	.st1{fill:#E0DDFF;}
	.st2{fill:#2121FF;}
</style>
<path class="st0" d="M3,3v1H2v3H1v8h1v-1h1v-1h1v1h1v1h2v-2h2v2h2v-1h1v-1h1v1h1v1h1V7h-1V4h-1V3h-1V2h-2V1H6v1H5H4v1H3z"/>
<path class="st1" d="M8,5v1h2v2H9v1h2V8h1V5h-1V4H9v1H8z"/>
<path class="st2" d="M8,6v2h2V6H8z"/>
<path class="st1" d="M2,5v1h2v2H3v1h2V8h1V5H5V4H3v1H2z"/>
<path class="st2" d="M2,6v2h2V6H2z"/>
</svg>
