<?xml version="1.0" encoding="utf-8"?>
<!-- Generator: Adobe Illustrator 26.0.1, SVG Export Plug-In . SVG Version: 6.00 Build 0)  -->
<svg version="1.1" id="Layer_1" xmlns="http://www.w3.org/2000/svg" xmlns:xlink="http://www.w3.org/1999/xlink" x="0px" y="0px"
	 viewBox="0 0 16 16" style="enable-background:new 0 0 16 16;" xml:space="preserve">
<style type="text/css">
	.st0{fill:#FF0000;}
	.st1{fill:#E0DDFF;}
	.st2{fill:#2121FF;}
</style>
<path class="st0" d="M3,3v1H2v3H1v8h1v-1h1v-1h1v1h1v1h2v-2h2v2h2v-1h1v-1h1v1h1v1h1V7h-1V4h-1V3h-1V2h-2V1H6v1H5H4v1H3z"/>
<path class="st1" d="M5,8v1h2V8h1V5H7V4H5v1H4v3H5z"/>
<path class="st2" d="M6,8V6h2v2H6z"/>
<path class="st1" d="M11,8v1h2V8h1V5h-1V4h-2v1h-1v3H11z"/>
<path class="st2" d="M12,8V6h2v2H12z"/>
</svg>
