<?xml version="1.0" encoding="utf-8"?>
<!-- Generator: Adobe Illustrator 26.0.1, SVG Export Plug-In . SVG Version: 6.00 Build 0)  -->
<svg version="1.1" id="Layer_1" xmlns="http://www.w3.org/2000/svg" xmlns:xlink="http://www.w3.org/1999/xlink" x="0px" y="0px"
	 viewBox="0 0 16 16" style="enable-background:new 0 0 16 16;" xml:space="preserve">
<style type="text/css">
	.st0{fill:#FF0000;}
	.st1{fill:#E0DDFF;}
	.st2{fill:#2121FF;}
</style>
<path class="st0" d="M3,3v1H2v3H1v7h1v1h2v-1h1v-1h1v1h1v1h2v-1h1v-1h1v1h1v1h2v-1h1V7h-1V4h-1V3h-1V2h-2V1H6v1H5H4v1H3z"/>
<path class="st1" d="M4,6v1h2V6h1V3H6V2H4v1H3v3H4z"/>
<path class="st2" d="M4,4V2h2v2H4z"/>
<path class="st1" d="M10,6v1h2V6h1V3h-1V2h-2v1H9v3H10z"/>
<path class="st2" d="M10,4V2h2v2H10z"/>
</svg>
