<?xml version="1.0" encoding="utf-8"?>
<!-- Generator: Adobe Illustrator 26.0.1, SVG Export Plug-In . SVG Version: 6.00 Build 0)  -->
<svg version="1.1" id="Layer_1" xmlns="http://www.w3.org/2000/svg" xmlns:xlink="http://www.w3.org/1999/xlink" x="0px" y="0px"
	 viewBox="0 0 16 16" style="enable-background:new 0 0 16 16;" xml:space="preserve">
<style type="text/css">
	.st0{fill:#2121FF;}
	.st1{fill:#FAB9B0;}
</style>
<path class="st0" d="M1,7v8h1v-1h1v-1h1v1h1v1h2v-2h2v2h2v-1h1v-1h1v1h1v1h1V7h-1V4h-1V3h-1V2h-2V1H6v1H4v1H3v1H2v3H1z"/>
<path class="st1" d="M5,5v2h2V5H5z"/>
<path class="st1" d="M9,5v2h2V5H9z"/>
<path class="st1" d="M2,11v-1h1V9h2v1h2V9h2v1h2V9h2v1h1v1h-1v-1h-2v1H9v-1H7v1H5v-1H3v1H2z"/>
</svg>
