<?xml version="1.0" encoding="utf-8"?>
<!-- Generator: Adobe Illustrator 26.0.1, SVG Export Plug-In . SVG Version: 6.00 Build 0)  -->
<svg version="1.1" id="Layer_1" xmlns="http://www.w3.org/2000/svg" xmlns:xlink="http://www.w3.org/1999/xlink" x="0px" y="0px"
	 viewBox="0 0 16 16" style="enable-background:new 0 0 16 16;" xml:space="preserve">
<style type="text/css">
	.st0{fill-rule:evenodd;clip-rule:evenodd;fill:#E0DDFF;}
	.st1{fill-rule:evenodd;clip-rule:evenodd;fill:#FF0000;}
</style>
<path class="st0" d="M8,15H7v-1H6v-1H5v1H4v1H2v-1H1V7h1V4h1V3h1V2h2V1h2h2v1h2v1h1v1h1v3h1v7h-1v1h-2v-1h-1v-1h-1v1H9v1H8z"/>
<path class="st1" d="M5,7V5h2v2H5z M9,7V5h2v2H9z M2,11v-1h1v1H2z M5,10H3V9h2V10z M7,10v1H5v-1H7z M9,10H8H7V9h1h1V10z M11,10v1H9
	v-1H11z M13,10h-2V9h2V10z M13,10h1v1h-1V10z"/>
</svg>
